<svg width="242" height="63" viewBox="0 0 242 63" fill="none" xmlns="http://www.w3.org/2000/svg">
<rect width="242" height="63" rx="15" fill="#1E1E1E"/>
<path d="M78.0161 36.5759C78.0161 39.4607 75.3317 41.5497 71.5537 41.5497H62.7051V23.6439H71.2554C74.934 23.6439 77.519 25.6335 77.519 28.4188C77.519 30.3088 76.5248 31.5026 75.0334 32.1989C76.6242 32.7958 78.0161 34.3874 78.0161 36.5759ZM66.5826 26.9266V30.8062H71.156C72.5479 30.8062 73.4427 30.0104 73.4427 28.9162C73.4427 27.8219 72.4485 26.9266 71.156 26.9266H66.5826ZM71.5537 38.267C73.045 38.267 74.1386 37.3717 74.1386 36.0785C74.1386 34.7853 73.1444 33.89 71.5537 33.89H66.5826V38.267H71.5537Z" fill="white"/>
<path d="M92.6311 41.4502L86.4669 34.3874H85.4727V41.4502H81.4958V23.6439H85.4727V30.5078H86.4669L92.4322 23.6439H97.105L89.6484 32.1989L97.801 41.4502H92.6311Z" fill="white"/>
<path d="M97.8011 32.5969C97.8011 27.2252 101.778 23.3456 107.346 23.3456C112.913 23.3456 116.89 27.2252 116.89 32.5969C116.89 37.9686 112.913 41.8482 107.346 41.8482C101.778 41.8482 97.8011 37.9686 97.8011 32.5969ZM112.714 32.5969C112.714 29.2147 110.527 26.9267 107.346 26.9267C104.164 26.9267 101.977 29.2147 101.977 32.5969C101.977 35.9791 104.164 38.267 107.346 38.267C110.527 38.267 112.714 35.9791 112.714 32.5969Z" fill="white"/>
<path d="M132.102 23.6439H136.078V41.4502H132.102V34.2879H124.148V41.4502H120.171V23.6439H124.148V30.7068H132.102V23.6439Z" fill="white"/>
<path d="M144.629 41.4502V27.2251H138.464V23.6439H154.67V27.2251H148.506V41.4502H144.629Z" fill="white"/>
<path d="M171.771 31.5026V41.4503H168.888L168.092 38.665C167.197 40.1571 165.308 41.8482 162.425 41.8482C158.846 41.8482 156.261 39.4608 156.261 36.178C156.261 32.8953 158.846 30.6074 164.115 30.6074H167.993C167.794 28.3194 166.601 26.7278 164.414 26.7278C162.624 26.7278 161.431 27.7225 160.834 28.8168L157.255 28.2199C158.15 25.1362 161.232 23.3456 164.612 23.3456C168.987 23.3456 171.771 26.3299 171.771 31.5026ZM167.893 33.6911H164.215C161.232 33.6911 160.238 34.6859 160.238 35.9791C160.238 37.4712 161.431 38.466 163.419 38.466C166.004 38.466 167.893 36.5759 167.893 33.6911Z" fill="white"/>
<path d="M187.082 41.4502L180.918 34.3874H179.923V41.4502H175.947V23.6439H179.923V30.5078H180.918L186.883 23.6439H191.556L184.099 32.1989L192.252 41.4502H187.082Z" fill="white"/>
<path d="M199.41 41.4502V27.2251H193.246V23.6439H209.452V27.2251H203.288V41.4502H199.41Z" fill="white"/>
<path d="M229.336 33.6911H215.019C215.417 36.4765 217.405 38.267 220.388 38.267C222.476 38.267 224.067 37.3718 224.961 36.0786L228.64 36.6754C227.347 40.0576 223.868 41.8482 220.09 41.8482C214.721 41.8482 210.844 37.9686 210.844 32.5969C210.844 27.2252 214.721 23.3456 220.09 23.3456C225.458 23.3456 229.336 27.2252 229.336 32.3979C229.435 32.8953 229.336 33.2932 229.336 33.6911ZM215.317 30.6074H225.16C224.464 28.4189 222.675 26.8273 220.189 26.8273C217.803 26.7278 215.914 28.3194 215.317 30.6074Z" fill="white"/>
<path d="M12 31.24C12 22.6416 12 18.3424 14.6697 15.6712C17.3394 13 21.6363 13 30.23 13H31.7491C40.3428 13 44.6397 13 47.3094 15.6712C49.9791 18.3424 49.9791 22.6416 49.9791 31.24V32.76C49.9791 41.3584 49.9791 45.6576 47.3094 48.3288C44.6397 51 40.3428 51 31.7491 51H30.23C21.6363 51 17.3394 51 14.6697 48.3288C12 45.6576 12 41.3584 12 32.76V31.24Z" fill="#0077FF"/>
<path d="M32.2081 40.3758C23.552 40.3758 18.6148 34.4384 18.4091 24.5583H22.745C22.8874 31.81 26.0839 34.8817 28.6159 35.515V24.5583H32.6987V30.8125C35.199 30.5433 37.8256 27.6933 38.7118 24.5583H42.7947C42.1142 28.4217 39.2658 31.2717 37.2402 32.4433C39.2658 33.3933 42.51 35.8792 43.7443 40.3758H39.25C38.2847 37.3675 35.8795 35.04 32.6987 34.7233V40.3758H32.2081Z" fill="white"/>
</svg>
