<svg width="342" height="626" viewBox="0 0 342 626" fill="none" xmlns="http://www.w3.org/2000/svg">
<rect width="342" height="626" rx="15" fill="#2F80ED"/>
<path d="M23 87C23 78.7157 29.7157 72 38 72H238C246.284 72 253 78.7157 253 87V91C253 99.2843 246.284 106 238 106H38C29.7157 106 23 99.2843 23 91V87Z" fill="#D9D9D9"/>
<path d="M92 148C92 139.716 98.7157 133 107 133H307C315.284 133 322 139.716 322 148V152C322 160.284 315.284 167 307 167H107C98.7157 167 92 160.284 92 152V148Z" fill="#D9D9D9"/>
<path d="M23 209C23 200.716 29.7157 194 38 194H238C246.284 194 253 200.716 253 209V213C253 221.284 246.284 228 238 228H38C29.7157 228 23 221.284 23 213V209Z" fill="#D9D9D9"/>
<path d="M92 270C92 261.716 98.7157 255 107 255H307C315.284 255 322 261.716 322 270V274C322 282.284 315.284 289 307 289H107C98.7157 289 92 282.284 92 274V270Z" fill="#D9D9D9"/>
<path d="M23 331C23 322.716 29.7157 316 38 316H238C246.284 316 253 322.716 253 331V335C253 343.284 246.284 350 238 350H38C29.7157 350 23 343.284 23 335V331Z" fill="#D9D9D9"/>
<path d="M92 392C92 383.716 98.7157 377 107 377H307C315.284 377 322 383.716 322 392V396C322 404.284 315.284 411 307 411H107C98.7157 411 92 404.284 92 396V392Z" fill="#D9D9D9"/>
<path d="M23 453C23 444.716 29.7157 438 38 438H238C246.284 438 253 444.716 253 453V457C253 465.284 246.284 472 238 472H38C29.7157 472 23 465.284 23 457V453Z" fill="#D9D9D9"/>
<path d="M23 575C23 566.716 29.7157 560 38 560H238C246.284 560 253 566.716 253 575V579C253 587.284 246.284 594 238 594H38C29.7157 594 23 587.284 23 579V575Z" fill="#D9D9D9"/>
<path d="M92 514C92 505.716 98.7157 499 107 499H307C315.284 499 322 505.716 322 514V518C322 526.284 315.284 533 307 533H107C98.7157 533 92 526.284 92 518V514Z" fill="#D9D9D9"/>
<path d="M42.0664 33.4844C42.0664 33.8281 41.8633 34 41.457 34H38.7734C38.4688 34 38.1406 33.8945 37.7891 33.6836C37.4375 33.4648 37.1641 33.2031 36.9688 32.8984L34.9062 29.6289C34.4141 28.832 33.918 28.2344 33.418 27.8359C32.918 27.4297 32.3164 27.2266 31.6133 27.2266H29.0938V32.9219C29.0938 33.2266 28.9844 33.4844 28.7656 33.6953C28.5547 33.8984 28.2969 34 27.9922 34H25.7891C25.4844 34 25.2227 33.8906 25.0039 33.6719C24.7852 33.4453 24.6758 33.1797 24.6758 32.875V18.3086C24.6758 18.0039 24.7852 17.7383 25.0039 17.5117C25.2227 17.2852 25.4844 17.1719 25.7891 17.1719H27.9922C28.2969 17.1719 28.5547 17.2852 28.7656 17.5117C28.9844 17.7383 29.0938 18.0039 29.0938 18.3086V23.9219H31.6133C32.3008 23.9219 32.9023 23.7344 33.418 23.3594C33.9414 22.9844 34.4375 22.3789 34.9062 21.543L36.7227 18.3086C37.1367 17.5586 37.6992 17.1797 38.4102 17.1719H41.1172C41.4922 17.1719 41.6797 17.3359 41.6797 17.6641C41.6797 17.8438 41.6133 18.0586 41.4805 18.3086L38.9375 22.9141C38.5703 23.5859 38.1562 24.1406 37.6953 24.5781C37.2422 25.0156 36.6484 25.3242 35.9141 25.5039C36.4297 25.6133 36.957 25.9375 37.4961 26.4766C38.043 27.0156 38.5234 27.6016 38.9375 28.2344L41.8672 32.8984C42 33.125 42.0664 33.3203 42.0664 33.4844ZM42.3477 33.2266L44.457 24.707C45.0508 22.3398 47.0117 21.1562 50.3398 21.1562H55.8828C56.0859 21.1562 56.2539 21.2266 56.3867 21.3672C56.5273 21.5 56.5977 21.6719 56.5977 21.8828V33.2852C56.5977 33.4883 56.5273 33.6602 56.3867 33.8008C56.2539 33.9336 56.0859 34 55.8828 34H53.2578C53.0547 34 52.8828 33.9336 52.7422 33.8008C52.6094 33.6602 52.543 33.4883 52.543 33.2852V23.9922H50.3398C49.2461 23.9922 48.5547 24.5664 48.2656 25.7148L46.4258 33.1328C46.3555 33.3906 46.2148 33.6016 46.0039 33.7656C45.8008 33.9219 45.582 34 45.3477 34H42.9453C42.7344 34 42.5742 33.9375 42.4648 33.8125C42.3633 33.6797 42.3125 33.5664 42.3125 33.4727C42.3125 33.3789 42.3242 33.2969 42.3477 33.2266ZM59.4805 33.2852V21.8828C59.4805 21.6719 59.5469 21.5 59.6797 21.3672C59.8203 21.2266 59.9922 21.1562 60.1953 21.1562H62.8203C63.0234 21.1562 63.1914 21.2266 63.3242 21.3672C63.4648 21.5 63.5352 21.6719 63.5352 21.8828V26.0781H65.2578C65.4688 24.3984 66.1641 23.1211 67.3438 22.2461C68.5312 21.3633 70.1211 20.9219 72.1133 20.9219C74.1055 20.9219 75.6992 21.4922 76.8945 22.6328C78.0977 23.7656 78.6992 25.418 78.6992 27.5898C78.6992 29.7539 78.0977 31.4023 76.8945 32.5352C75.6992 33.668 74.0977 34.2344 72.0898 34.2344C70.082 34.2344 68.4844 33.7812 67.2969 32.875C66.1172 31.9609 65.4297 30.6406 65.2344 28.9141H63.5352V33.2852C63.5352 33.4883 63.4648 33.6602 63.3242 33.8008C63.1914 33.9336 63.0234 34 62.8203 34H60.1953C59.9922 34 59.8203 33.9336 59.6797 33.8008C59.5469 33.6602 59.4805 33.4883 59.4805 33.2852ZM74.6445 27.5781C74.6445 24.9141 73.7383 23.582 71.9258 23.582C70.1211 23.582 69.2188 24.9141 69.2188 27.5781C69.2188 30.2422 70.1211 31.5742 71.9258 31.5742C73.7383 31.5742 74.6445 30.2422 74.6445 27.5781ZM80.1523 21.8828C80.1523 21.6719 80.2188 21.5 80.3516 21.3672C80.4922 21.2266 80.668 21.1562 80.8789 21.1562H83.4922C83.7031 21.1562 83.875 21.2266 84.0078 21.3672C84.1484 21.5 84.2188 21.6719 84.2188 21.8828V25.3398C84.2188 25.9258 84.3672 26.3555 84.6641 26.6289C84.9688 26.9023 85.3633 27.0391 85.8477 27.0391H88.8242V21.8828C88.8242 21.6719 88.8906 21.5 89.0234 21.3672C89.1641 21.2266 89.3359 21.1562 89.5391 21.1562H92.1523C92.3633 21.1562 92.5352 21.2266 92.668 21.3672C92.8086 21.5 92.8789 21.6719 92.8789 21.8828V33.2852C92.8789 33.4883 92.8086 33.6602 92.668 33.8008C92.5352 33.9336 92.3633 34 92.1523 34H89.5391C89.3359 34 89.1641 33.9336 89.0234 33.8008C88.8906 33.6602 88.8242 33.4883 88.8242 33.2852V29.875H85.8477C83.8945 29.875 82.457 29.5352 81.5352 28.8555C80.6133 28.1758 80.1523 27.0039 80.1523 25.3398V21.8828ZM96.8398 32.5234C95.6367 31.3828 95.0352 29.7422 95.0352 27.6016C95.0352 25.4531 95.6406 23.8047 96.8516 22.6562C98.0625 21.5 99.7422 20.9219 101.891 20.9219C104.039 20.9219 105.715 21.4844 106.918 22.6094C108.121 23.7266 108.723 25.332 108.723 27.4258V28.0938C108.723 28.3047 108.652 28.4805 108.512 28.6211C108.379 28.7539 108.207 28.8203 107.996 28.8203H99.1719C99.25 29.7812 99.5234 30.4805 99.9922 30.918C100.469 31.3555 101.227 31.5742 102.266 31.5742C103.305 31.5742 104.016 31.3398 104.398 30.8711C104.781 30.4023 105.254 30.1641 105.816 30.1562H107.562C107.773 30.1562 107.945 30.2266 108.078 30.3672C108.219 30.5 108.289 30.6719 108.289 30.8828C108.289 33.125 106.152 34.2422 101.879 34.2344C99.7227 34.2344 98.043 33.6641 96.8398 32.5234ZM99.1484 26.3477H104.598C104.52 24.5039 103.613 23.582 101.879 23.582C100.152 23.582 99.2422 24.5039 99.1484 26.3477ZM110.879 33.2852V21.8828C110.879 21.6719 110.945 21.5 111.078 21.3672C111.219 21.2266 111.391 21.1562 111.594 21.1562H118.602C120.094 21.1562 121.301 21.4453 122.223 22.0234C123.152 22.6016 123.617 23.4727 123.617 24.6367C123.617 25.793 123.137 26.668 122.176 27.2617C123.543 27.9492 124.227 28.9688 124.227 30.3203C124.227 31.6719 123.785 32.625 122.902 33.1797C122.02 33.7266 120.754 34 119.105 34H111.594C111.391 34 111.219 33.9336 111.078 33.8008C110.945 33.6602 110.879 33.4883 110.879 33.2852ZM114.934 31.3867H118.824C119.254 31.3867 119.582 31.2656 119.809 31.0234C120.043 30.7812 120.16 30.4609 120.16 30.0625C120.16 29.6641 120.043 29.3438 119.809 29.1016C119.582 28.8594 119.254 28.7383 118.824 28.7383H114.934V31.3867ZM114.934 26.1719H118.367C118.719 26.1719 119.004 26.0625 119.223 25.8438C119.449 25.6172 119.562 25.3281 119.562 24.9766C119.562 24.625 119.449 24.3398 119.223 24.1211C119.004 23.8945 118.719 23.7812 118.367 23.7812H114.934V26.1719ZM126.277 33.2852V21.8828C126.277 21.6719 126.344 21.5 126.477 21.3672C126.617 21.2266 126.789 21.1562 126.992 21.1562H129.617C129.828 21.1562 130 21.2266 130.133 21.3672C130.266 21.5 130.332 21.6719 130.332 21.8828V25.4102H133.121C134.785 25.4102 136.07 25.7383 136.977 26.3945C137.891 27.0508 138.348 28.1562 138.348 29.7109C138.348 31.2578 137.891 32.3594 136.977 33.0156C136.07 33.6719 134.785 34 133.121 34H126.992C126.781 34 126.609 33.9336 126.477 33.8008C126.344 33.668 126.277 33.4961 126.277 33.2852ZM130.262 31.3867H132.758C133.781 31.3867 134.293 30.8281 134.293 29.7109C134.293 28.5859 133.781 28.0234 132.758 28.0234H130.262V31.3867ZM140 33.2852V21.8828C140 21.6719 140.066 21.5 140.199 21.3672C140.34 21.2266 140.516 21.1562 140.727 21.1562H143.34C143.551 21.1562 143.723 21.2266 143.855 21.3672C143.988 21.5 144.055 21.6719 144.055 21.8828V33.2852C144.055 33.4961 143.988 33.668 143.855 33.8008C143.723 33.9336 143.551 34 143.34 34H140.727C140.516 34 140.34 33.9336 140.199 33.8008C140.066 33.668 140 33.4961 140 33.2852ZM148.027 32.5234C146.824 31.3828 146.223 29.7422 146.223 27.6016C146.223 25.4531 146.828 23.8047 148.039 22.6562C149.25 21.5 150.93 20.9219 153.078 20.9219C155.227 20.9219 156.902 21.4844 158.105 22.6094C159.309 23.7266 159.91 25.332 159.91 27.4258V28.0938C159.91 28.3047 159.84 28.4805 159.699 28.6211C159.566 28.7539 159.395 28.8203 159.184 28.8203H150.359C150.438 29.7812 150.711 30.4805 151.18 30.918C151.656 31.3555 152.414 31.5742 153.453 31.5742C154.492 31.5742 155.203 31.3398 155.586 30.8711C155.969 30.4023 156.441 30.1641 157.004 30.1562H158.75C158.961 30.1562 159.133 30.2266 159.266 30.3672C159.406 30.5 159.477 30.6719 159.477 30.8828C159.477 33.125 157.34 34.2422 153.066 34.2344C150.91 34.2344 149.23 33.6641 148.027 32.5234ZM150.336 26.3477H155.785C155.707 24.5039 154.801 23.582 153.066 23.582C151.34 23.582 150.43 24.5039 150.336 26.3477ZM176.691 34.2344C174.504 34.2344 172.801 33.6719 171.582 32.5469C170.363 31.4219 169.754 29.7695 169.754 27.5898C169.754 25.4023 170.359 23.7461 171.57 22.6211C172.781 21.4883 174.465 20.9219 176.621 20.9219C178.785 20.9219 180.445 21.2656 181.602 21.9531C182.766 22.6406 183.348 23.6562 183.348 25C183.348 25.2109 183.277 25.3828 183.137 25.5156C183.004 25.6484 182.832 25.7148 182.621 25.7148H180.875C180.344 25.7148 179.895 25.4297 179.527 24.8594C179.066 24.125 178.25 23.7578 177.078 23.7578C175.914 23.7578 175.098 24.0586 174.629 24.6602C174.168 25.2539 173.938 26.2266 173.938 27.5781C173.938 28.9297 174.176 29.9062 174.652 30.5078C175.137 31.1094 175.973 31.4102 177.16 31.4102C178.355 31.4102 179.184 31.043 179.645 30.3086C180.012 29.7305 180.461 29.4414 180.992 29.4414H182.738C182.949 29.4414 183.121 29.5117 183.254 29.6523C183.395 29.7852 183.465 29.9531 183.465 30.1562C183.465 31.5 182.883 32.5156 181.719 33.2031C180.562 33.8906 178.887 34.2344 176.691 34.2344ZM184.215 33.2266L186.324 24.707C186.918 22.3398 188.879 21.1562 192.207 21.1562H197.75C197.953 21.1562 198.121 21.2266 198.254 21.3672C198.395 21.5 198.465 21.6719 198.465 21.8828V33.2852C198.465 33.4883 198.395 33.6602 198.254 33.8008C198.121 33.9336 197.953 34 197.75 34H195.125C194.922 34 194.75 33.9336 194.609 33.8008C194.477 33.6602 194.41 33.4883 194.41 33.2852V23.9922H192.207C191.113 23.9922 190.422 24.5664 190.133 25.7148L188.293 33.1328C188.223 33.3906 188.082 33.6016 187.871 33.7656C187.668 33.9219 187.449 34 187.215 34H184.812C184.602 34 184.441 33.9375 184.332 33.8125C184.23 33.6797 184.18 33.5664 184.18 33.4727C184.18 33.3789 184.191 33.2969 184.215 33.2266ZM202.449 32.5469C201.23 31.4219 200.621 29.7656 200.621 27.5781C200.621 25.3828 201.23 23.7266 202.449 22.6094C203.668 21.4844 205.418 20.9219 207.699 20.9219C209.988 20.9219 211.742 21.4844 212.961 22.6094C214.18 23.7266 214.789 25.3828 214.789 27.5781C214.789 29.7656 214.18 31.4219 212.961 32.5469C211.742 33.6719 209.988 34.2344 207.699 34.2344C205.418 34.2344 203.668 33.6719 202.449 32.5469ZM205.414 24.5312C204.93 25.1641 204.688 26.1758 204.688 27.5664C204.688 28.957 204.93 29.9727 205.414 30.6133C205.898 31.2539 206.66 31.5742 207.699 31.5742C208.746 31.5742 209.512 31.2539 209.996 30.6133C210.488 29.9727 210.734 28.957 210.734 27.5664C210.734 26.1758 210.488 25.1641 209.996 24.5312C209.512 23.8984 208.746 23.582 207.699 23.582C206.66 23.582 205.898 23.8984 205.414 24.5312ZM216.957 33.2852V21.8828C216.957 21.6719 217.023 21.5 217.156 21.3672C217.297 21.2266 217.469 21.1562 217.672 21.1562H224.68C226.172 21.1562 227.379 21.4453 228.301 22.0234C229.23 22.6016 229.695 23.4727 229.695 24.6367C229.695 25.793 229.215 26.668 228.254 27.2617C229.621 27.9492 230.305 28.9688 230.305 30.3203C230.305 31.6719 229.863 32.625 228.98 33.1797C228.098 33.7266 226.832 34 225.184 34H217.672C217.469 34 217.297 33.9336 217.156 33.8008C217.023 33.6602 216.957 33.4883 216.957 33.2852ZM221.012 31.3867H224.902C225.332 31.3867 225.66 31.2656 225.887 31.0234C226.121 30.7812 226.238 30.4609 226.238 30.0625C226.238 29.6641 226.121 29.3438 225.887 29.1016C225.66 28.8594 225.332 28.7383 224.902 28.7383H221.012V31.3867ZM221.012 26.1719H224.445C224.797 26.1719 225.082 26.0625 225.301 25.8438C225.527 25.6172 225.641 25.3281 225.641 24.9766C225.641 24.625 225.527 24.3398 225.301 24.1211C225.082 23.8945 224.797 23.7812 224.445 23.7812H221.012V26.1719ZM233.176 33.1562C232.145 32.4375 231.629 31.4219 231.629 30.1094C231.629 28.7969 232.145 27.7891 233.176 27.0859C234.215 26.3828 235.551 26.0312 237.184 26.0312H241.062C241.062 25.1172 240.871 24.4805 240.488 24.1211C240.105 23.7617 239.434 23.582 238.473 23.582C237.52 23.582 236.848 23.8203 236.457 24.2969C236.074 24.7656 235.602 25 235.039 25H233.293C233.082 25 232.906 24.9336 232.766 24.8008C232.633 24.6602 232.566 24.4883 232.566 24.2852C232.566 22.043 234.695 20.9219 238.953 20.9219C240.812 20.9219 242.305 21.3398 243.43 22.1758C244.555 23.0039 245.117 24.2891 245.117 26.0312V33.2852C245.117 33.4961 245.051 33.668 244.918 33.8008C244.785 33.9336 244.613 34 244.402 34H242.141C241.93 34 241.758 33.9336 241.625 33.8008C241.492 33.6602 241.426 33.4883 241.426 33.2852V32.9219C240.191 33.8047 238.766 34.2422 237.148 34.2344C235.539 34.2344 234.215 33.875 233.176 33.1562ZM237.465 28.6914C236.918 28.6914 236.484 28.8242 236.164 29.0898C235.852 29.3555 235.695 29.6992 235.695 30.1211C235.695 30.543 235.859 30.8906 236.188 31.1641C236.516 31.4375 236.98 31.5742 237.582 31.5742C238.785 31.5742 239.945 31.2227 241.062 30.5195V28.6914H237.465ZM250.555 30.2031C251.609 30.2031 252.137 30.7344 252.137 31.7969V32.5352C252.137 33.0273 252 33.4141 251.727 33.6953C251.461 33.9766 251.07 34.1172 250.555 34.1172H249.113C248.598 34.1172 248.203 33.9766 247.93 33.6953C247.664 33.4141 247.531 33.0273 247.531 32.5352V31.7969C247.531 31.2812 247.668 30.8867 247.941 30.6133C248.215 30.3398 248.605 30.2031 249.113 30.2031H250.555ZM249.113 24.8359C248.059 24.8359 247.531 24.3047 247.531 23.2422V22.5039C247.531 22.0117 247.668 21.625 247.941 21.3438C248.215 21.0625 248.605 20.9219 249.113 20.9219H250.555C251.07 20.9219 251.461 21.0625 251.727 21.3438C252 21.625 252.137 22.0117 252.137 22.5039V23.2422C252.137 24.3047 251.609 24.8359 250.555 24.8359H249.113Z" fill="white"/>
</svg>
